<svg xmlns="http://www.w3.org/2000/svg" width="163" height="26" fill="none" viewBox="0 0 163 26"><g fill="#fff" clip-path="url(#a)"><path d="M.694 12.25C1.272 9.246 3.93 7.165 7.63 7.165c4.277 0 7.63 1.85 7.63 7.63v10.75h-3.7l-.462-2.311c-1.272 1.618-3.006 2.659-5.55 2.659-3.12 0-5.548-1.965-5.548-5.55 0-3.583 3.237-5.895 7.745-5.895h3.006v-.81c0-2.08-1.503-2.658-3.237-2.658-1.271 0-2.543.462-3.121 2.08zm5.895 9.827c2.081 0 4.162-1.387 4.162-3.7v-.346h-2.89c-1.965-.116-3.121.693-3.121 2.312 0 .809.693 1.734 1.85 1.734M87.858 12.25c.578-3.005 3.237-5.086 6.936-5.086 4.277 0 7.63 1.85 7.63 7.63v10.75h-3.7l-.462-2.311c-1.272 1.618-3.006 2.659-5.549 2.659-3.121 0-5.549-1.965-5.549-5.55 0-3.583 3.237-5.895 7.745-5.895h3.006v-.81c0-2.08-1.503-2.658-3.237-2.658-1.271 0-2.543.462-3.121 2.08zm5.895 9.827c2.081 0 4.162-1.387 4.162-3.7v-.346H94.91c-1.965 0-3.12.693-3.12 2.312.115.809.808 1.734 1.964 1.734M106.469 25.66V7.395h4.508v3.006c1.272-2.197 3.353-3.237 5.318-3.237.809 0 1.503.116 2.196.347l-.809 4.162c-.578-.347-1.156-.578-1.849-.578-2.659 0-4.856 2.196-4.856 7.976v6.474zM128.087 7.162c1.849 0 3.583.925 4.393 1.965V.11h4.508V25.66h-4.508v-1.85c-.578.925-2.197 2.196-4.393 2.196-5.434 0-8.208-3.814-8.208-9.363 0-5.55 2.774-9.48 8.208-9.48m.693 14.913c2.312 0 4.162-1.965 4.162-5.549s-1.85-5.549-4.162-5.549-4.161 1.965-4.161 5.549 1.849 5.549 4.161 5.549M153.173 10.054l-2.659 2.428c-.809-1.156-2.081-1.619-3.005-1.619-.925 0-1.734.578-1.734 1.503 0 .81.693 1.387 1.734 1.734 2.543.925 6.589 1.734 6.589 5.549 0 3.352-2.543 6.011-6.474 6.011-3.815 0-6.358-2.659-7.167-4.855l3.584-1.965c.693 1.734 1.849 3.005 3.699 3.005 1.387 0 2.312-.693 2.312-1.965 0-1.503-2.312-1.85-4.509-2.774-1.965-.81-3.699-2.081-3.699-4.856s2.312-5.317 5.78-5.317c2.312.115 4.509 1.387 5.549 3.12M59.998 7.395l-3.237 12.6-3.121-12.6h-4.162l-3.005 12.6-2.544-7.283-.346.81-1.388 4.74 2.312 7.398h3.93l3.122-11.792L54.68 25.66h4.047l5.78-18.265zM81.616 7.395l-3.237 12.6-3.122-12.6h-4.161l-3.006 12.6-2.543-7.283-.347.81-1.503 4.74 2.428 7.398h3.93l3.122-11.792 3.121 11.792h3.93l5.896-18.265zM42.888 7.395l-5.78 18.15h-3.93l-3.121-11.677-3.122 11.792h-3.93l-5.78-18.15h4.508l3.237 12.485L28.091 7.51h4.162l3.121 12.485L38.611 7.51zM159.996 19.764c1.734 0 3.006 1.271 3.006 3.005s-1.272 3.006-3.006 3.006-3.006-1.272-3.006-3.006 1.272-3.005 3.006-3.005"/></g><defs><clipPath id="a"><path fill="#fff" d="M0 .11h163v25.78H0z"/></clipPath></defs></svg>