<svg xmlns="http://www.w3.org/2000/svg" width="159" height="25" fill="none" viewBox="0 0 159 25"><path fill="#fff" d="M15.725 15.83 7.863 7.916 15.725 0H7.863L0 7.916l3.931 4.002 3.932 3.912 3.931 3.913z"/><path fill="#fff" d="m21.317 11.917-3.93-4.002-3.932-3.913L9.61 7.915l7.775 7.914-7.863 7.915h7.863l3.931-3.913 3.932-4.001zM35.032 7.917c-1.135 0-2.096.356-2.795 1.156-.7.8-1.049 1.867-1.049 3.29s.35 2.49.961 3.29c.7.801 1.573 1.157 2.796 1.157.786 0 1.572-.178 2.533-.445v1.156a8.2 8.2 0 0 1-2.708.445c-1.572 0-2.795-.445-3.669-1.423s-1.31-2.401-1.31-4.18c0-1.156.174-2.134.611-2.934s1.048-1.512 1.747-1.957c.7-.444 1.66-.711 2.796-.711s2.097.178 2.97.622l-.524 1.067c-.699-.266-1.485-.533-2.359-.533M45.953 14.942c0 .979-.35 1.69-1.049 2.224-.699.533-1.572.8-2.795.8-1.31 0-2.272-.178-2.97-.534v-1.245a8.5 8.5 0 0 0 1.397.445 8.5 8.5 0 0 0 1.573.178c.873 0 1.485-.178 1.834-.445.437-.356.612-.8.612-1.334 0-.356-.087-.711-.262-.89-.175-.266-.437-.444-.786-.71-.35-.178-.874-.445-1.573-.712-.961-.356-1.747-.8-2.097-1.334-.437-.534-.611-1.156-.611-1.956s.35-1.512.96-2.046c.612-.533 1.486-.711 2.447-.711 1.048 0 2.01.178 2.97.622l-.35 1.068a6.9 6.9 0 0 0-2.62-.534c-.699 0-1.136.178-1.573.445-.35.266-.524.711-.524 1.245 0 .355.087.711.175.889.175.267.35.444.699.622.35.178.786.445 1.485.712q1.704.667 2.359 1.334c.524.533.699 1.156.699 1.867M54.252 14.942c0 .979-.35 1.69-1.049 2.224-.699.533-1.572.8-2.795.8-1.31 0-2.272-.178-2.97-.534v-1.245c.436.178.96.356 1.397.445a8.5 8.5 0 0 0 1.573.178c.873 0 1.485-.178 1.834-.445.437-.356.612-.8.612-1.334 0-.356-.088-.711-.262-.89-.175-.266-.437-.444-.787-.71-.35-.178-.873-.445-1.572-.712-.961-.356-1.747-.8-2.097-1.334-.437-.534-.611-1.156-.611-1.956s.35-1.512.96-2.046c.612-.533 1.486-.711 2.447-.711 1.048 0 2.01.178 2.97.622l-.35 1.068a6.9 6.9 0 0 0-2.62-.534c-.7 0-1.136.178-1.573.445-.35.266-.524.711-.524 1.245 0 .355.087.711.175.889.175.267.35.444.699.622.35.178.786.445 1.485.712q1.704.667 2.359 1.334c.437.533.699 1.156.699 1.867M65.173 12.185c0 1.779-.524 3.202-1.485 4.18s-2.36 1.512-4.194 1.512H56V6.938h3.669c1.747 0 3.058.445 4.019 1.334.96.89 1.485 2.224 1.485 3.913m-2.97.09c0-.979-.175-1.78-.612-2.224-.35-.445-.961-.711-1.747-.711h-.874v6.136h.612c.873 0 1.485-.267 1.922-.8.524-.534.699-1.335.699-2.402M70.938 18.055c-1.398 0-2.446-.356-3.232-1.156-.787-.712-1.136-1.779-1.136-3.202 0-1.422.35-2.49 1.048-3.29.7-.8 1.748-1.156 3.058-1.156 1.223 0 2.184.356 2.883.978.699.623 1.048 1.6 1.048 2.846v1.334h-5.154c0 .444.175.8.524 1.156.35.267.786.445 1.31.445.525 0 .962-.09 1.398-.178.437-.09.874-.267 1.398-.534v2.135c-.437.266-.873.355-1.397.444-.525.089-1.049.178-1.748.178m-.175-6.759c-.349 0-.611.09-.873.356-.262.178-.35.534-.437.978h2.446c0-.444-.087-.711-.35-.978-.087-.267-.349-.356-.786-.356M82.644 15.298c0 .89-.262 1.6-.873 2.045-.612.445-1.486.712-2.621.712-.612 0-1.136 0-1.573-.09-.437-.088-.96-.177-1.398-.355v-2.312c.437.178.961.356 1.486.534.524.088.96.177 1.397.177.612 0 .961-.177.961-.444 0-.178-.087-.267-.262-.356-.174-.089-.699-.356-1.485-.711q-1.179-.534-1.572-1.067c-.262-.445-.437-.89-.437-1.512 0-.8.262-1.423.873-1.868.612-.444 1.398-.622 2.534-.622.524 0 1.048.089 1.572.178.525.088.962.266 1.486.533l-.787 1.868a5 5 0 0 0-1.223-.445c-.436-.089-.786-.178-1.048-.178-.437 0-.699.09-.699.356 0 .178.087.267.262.356s.612.266 1.398.622c.611.267 1.048.445 1.31.712.263.266.525.533.612.8 0 .178.087.622.087 1.067M84.219 7.294c0-.445.087-.8.349-.978a1.92 1.92 0 0 1 1.136-.356c.524 0 .96.089 1.135.356.263.178.35.533.35.978 0 .89-.524 1.245-1.573 1.245-.96.089-1.397-.356-1.397-1.245m2.883 10.583h-2.883V9.428h2.883zM96.973 9.429v1.423l-1.136.444c.175.267.262.623.262.979 0 .889-.35 1.6-.96 2.134-.612.533-1.573.711-2.796.711-.35 0-.525 0-.7-.089-.087.09-.087.267-.087.356 0 .178.088.267.35.356s.524.089.873.089h1.398c1.835 0 2.796.8 2.796 2.4q0 1.601-1.31 2.402c-.874.534-2.097.89-3.67.89-1.135 0-2.096-.179-2.708-.623a1.91 1.91 0 0 1-.961-1.69c0-.978.612-1.69 1.835-1.956-.263-.09-.437-.267-.7-.534-.174-.267-.261-.445-.261-.711a1.7 1.7 0 0 1 .174-.712c.175-.178.437-.444.874-.711-.437-.178-.786-.534-1.048-.89-.262-.444-.35-.889-.35-1.511 0-.89.35-1.601.961-2.135q.917-.8 2.621-.8c.175 0 .437 0 .786.089.35 0 .612.089.787.089zm-6.29 9.515c0 .267.087.445.35.623.261.178.61.178 1.048.178.698 0 1.223-.09 1.66-.267s.611-.445.611-.712-.087-.355-.35-.444a3.4 3.4 0 0 0-1.135-.178H91.73c-.35 0-.524.089-.786.178a.81.81 0 0 0-.262.622m.873-6.758c0 .889.263 1.334.874 1.334.262 0 .524-.09.612-.356.174-.178.262-.534.262-.978 0-.89-.262-1.334-.874-1.334-.524 0-.874.444-.874 1.334M103.438 17.877v-4.624c0-.534-.087-.979-.262-1.245s-.437-.445-.786-.445c-.524 0-.874.178-1.048.622-.175.356-.35 1.068-.35 2.046v3.735h-2.883V9.518h2.184l.35 1.067h.174c.262-.356.612-.712 1.049-.89a4 4 0 0 1 1.485-.266c.961 0 1.66.266 2.184.8s.786 1.334.786 2.312v5.514h-2.883zM115.494 17.877l-1.311-3.468h-4.281l-1.31 3.468h-1.223l4.281-10.939h1.048l4.193 10.939zm-1.748-4.625-1.223-3.379a17 17 0 0 1-.524-1.6c-.087.444-.262.978-.437 1.6l-1.223 3.38zM124.668 17.877l-1.485-4.802c-.087-.267-.262-.979-.524-1.957h-.088a16 16 0 0 1-.524 2.046l-1.485 4.802h-1.398l-2.184-8.182h1.311c.524 2.045.873 3.646 1.223 4.713.262 1.068.437 1.779.437 2.135h.087a9 9 0 0 0 .262-1.067c.087-.445.262-.8.349-1.068l1.486-4.713h1.31l1.398 4.713q.393 1.335.524 2.135h.087c0-.178.088-.445.175-.8s.612-2.402 1.485-6.048h1.223l-2.184 8.182h-1.485zM134.712 17.877l-.262-1.156h-.087c-.437.533-.787.89-1.223 1.067-.437.178-.874.267-1.486.267-.786 0-1.397-.178-1.834-.623-.437-.444-.699-.978-.699-1.778 0-1.69 1.31-2.49 3.931-2.58l1.398-.088v-.534c0-.622-.175-1.156-.437-1.423-.262-.266-.699-.444-1.31-.444-.699 0-1.398.178-2.272.622l-.349-.978c.437-.178.786-.356 1.31-.534.437-.088.961-.177 1.398-.177.961 0 1.66.177 2.097.622s.699 1.156.699 2.045v5.603h-.874zm-2.796-.89c.787 0 1.311-.177 1.748-.622.437-.444.611-.978.611-1.778v-.712l-1.223.089c-.961 0-1.66.178-2.097.445-.436.266-.611.711-.611 1.245 0 .444.175.8.437.978.349.267.699.356 1.135.356M141.79 9.518c.349 0 .699 0 .961.089l-.175 1.156c-.349-.09-.611-.09-.874-.09-.611 0-1.223.267-1.659.801-.437.534-.699 1.245-.699 2.045v4.358h-1.223V9.695h.961l.174 1.512h.088c.262-.533.699-.978 1.048-1.245.437-.267.874-.444 1.398-.444M149.741 16.81c-.611.8-1.485 1.244-2.621 1.244-1.048 0-1.834-.356-2.446-1.067-.611-.711-.873-1.779-.873-3.112 0-1.335.262-2.402.873-3.113.612-.712 1.398-1.156 2.446-1.156s1.922.444 2.534 1.245h.087l-.087-.623V6.227h1.223v11.65h-.961zm-2.446.177c.874 0 1.398-.267 1.835-.711.349-.445.524-1.245.524-2.224v-.266c0-1.156-.175-1.957-.612-2.49-.349-.534-.961-.712-1.834-.712-.699 0-1.223.267-1.66.89-.35.533-.612 1.333-.612 2.4q0 1.602.524 2.402c.525.444 1.049.711 1.835.711M158.65 15.654c0 .8-.262 1.334-.873 1.778-.524.445-1.311.623-2.359.623s-1.922-.178-2.533-.534v-1.156c.349.178.786.356 1.223.445.436.089.873.178 1.31.178.612 0 1.136-.09 1.485-.267s.524-.534.524-.978a.94.94 0 0 0-.436-.8q-.394-.401-1.573-.801c-.786-.267-1.31-.534-1.572-.711-.35-.178-.525-.445-.699-.712-.175-.267-.262-.622-.262-.978q0-.934.786-1.6c.524-.446 1.223-.623 2.184-.623a6.2 6.2 0 0 1 2.533.533l-.436.978c-.787-.355-1.573-.533-2.185-.533q-.917 0-1.31.267a.94.94 0 0 0-.437.8c0 .178.088.445.175.534.087.177.262.266.524.444s.699.356 1.398.623c.961.355 1.572.711 1.922 1.067.437.444.611.89.611 1.423"/></svg>