<svg xmlns="http://www.w3.org/2000/svg" width="101" height="26" fill="none" viewBox="0 0 101 26"><g fill="#fff" clip-path="url(#a)"><path d="M33.602 11.756h2.156V3.939l4.463 7.817h2.426V.776h-2.156v7.233L36.417.775h-2.815zM47.89 10.237c-1.229 0-1.918-.922-1.918-2.457v-.123c0-1.536.72-2.427 1.917-2.427 1.213 0 1.917.922 1.917 2.458v.107c0 1.52-.704 2.442-1.917 2.442m-.016 1.69c2.351 0 4.134-1.613 4.134-4.147v-.123c0-2.503-1.768-4.116-4.119-4.116s-4.133 1.643-4.133 4.162v.123c0 2.503 1.782 4.1 4.118 4.1M52.863 8.316h3.834V6.55h-3.834zM63.037 11.927c2.635 0 4.537-1.398 4.807-4.116h-2.381c-.195 1.413-1.123 2.104-2.456 2.104-1.767 0-2.786-1.32-2.786-3.594V6.2c0-2.273 1.078-3.625 2.77-3.625 1.349 0 2.067.707 2.247 2.027h2.486C67.47 1.898 65.553.608 62.977.608c-3.04 0-5.317 2.273-5.317 5.606v.123c0 3.378 1.872 5.59 5.377 5.59M72.428 10.237c-1.228 0-1.916-.922-1.916-2.457v-.123c0-1.536.718-2.427 1.916-2.427 1.213 0 1.917.922 1.917 2.458v.107c0 1.52-.704 2.442-1.917 2.442m-.014 1.69c2.35 0 4.133-1.613 4.133-4.147v-.123c0-2.503-1.767-4.116-4.119-4.116-2.35 0-4.133 1.643-4.133 4.162v.123c0 2.503 1.782 4.1 4.118 4.1M80.488 11.926c1.153 0 2.111-.691 2.515-1.505v1.336h2.157V.085h-2.157v4.838c-.434-.814-1.213-1.383-2.47-1.383-1.963 0-3.445 1.552-3.445 4.193v.123c0 2.672 1.498 4.07 3.4 4.07m.643-1.736c-1.078 0-1.827-.783-1.827-2.38v-.123c0-1.597.674-2.442 1.887-2.442 1.183 0 1.872.814 1.872 2.411v.123c0 1.628-.793 2.411-1.932 2.411M90.249 11.926c2.141 0 3.489-.967 3.744-2.703H91.94c-.135.676-.629 1.121-1.633 1.121-1.183 0-1.887-.767-1.947-2.104h5.647v-.614c0-2.872-1.798-4.085-3.82-4.085-2.276 0-4.028 1.643-4.028 4.177v.123c0 2.565 1.722 4.085 4.089 4.085M88.39 6.874c.165-1.137.824-1.797 1.798-1.797 1.033 0 1.632.583 1.707 1.797zM38.423 25.91c2.636 0 4.538-1.397 4.808-4.116H40.85c-.195 1.413-1.124 2.104-2.457 2.104-1.767 0-2.785-1.32-2.785-3.593v-.123c0-2.273 1.078-3.624 2.77-3.624 1.348 0 2.067.706 2.247 2.027h2.486c-.255-2.703-2.171-3.993-4.748-3.993-3.04 0-5.316 2.273-5.316 5.605v.123c0 3.379 1.872 5.59 5.376 5.59M47.813 24.221c-1.228 0-1.917-.921-1.917-2.457v-.123c0-1.535.72-2.426 1.917-2.426 1.213 0 1.917.921 1.917 2.457v.107c0 1.52-.704 2.442-1.917 2.442m-.015 1.69c2.352 0 4.134-1.613 4.134-4.147v-.123c0-2.503-1.768-4.116-4.119-4.116s-4.133 1.644-4.133 4.162v.123c0 2.503 1.782 4.1 4.118 4.1M52.94 25.742h2.17v-4.638c0-1.183.705-1.766 1.633-1.766.959 0 1.378.522 1.378 1.612v4.792h2.172v-5.114c0-2.15-1.094-3.103-2.636-3.103-1.303 0-2.157.66-2.546 1.46V17.71H52.94zM62.065 25.742h2.156v-6.45h1.707V17.71h-1.707v-.983c0-.614.285-1.06.974-1.06.314 0 .584.062.793.14v-1.675c-.344-.107-.659-.153-1.123-.153-1.737 0-2.8.936-2.8 2.81v.921H61.03v1.582h1.034zM68.906 25.743h8.087v-1.89H72.83l2.022-2.027c1.243-1.228 2.066-2.426 2.066-3.885 0-1.981-1.347-3.333-3.714-3.333-2.396 0-3.893 1.383-4.013 3.917h2.201c.165-1.444.764-2.012 1.708-2.012.928 0 1.422.583 1.422 1.49 0 .998-.659 1.965-1.692 3.086l-3.924 4.254zM82.472 23.961c-1.498 0-2.292-1.152-2.292-3.455v-.523c0-2.272.764-3.455 2.262-3.455 1.482 0 2.23 1.244 2.23 3.456v.491c0 2.304-.688 3.486-2.2 3.486m-.06 1.95c2.89 0 4.672-2.088 4.672-5.451v-.507c0-3.41-1.902-5.345-4.657-5.345s-4.673 2.012-4.673 5.39v.523c0 3.363 1.812 5.39 4.658 5.39M87.486 25.743h8.087v-1.89H91.41l2.022-2.027c1.243-1.228 2.067-2.426 2.067-3.885 0-1.981-1.348-3.333-3.715-3.333-2.396 0-3.894 1.383-4.013 3.917h2.201c.165-1.444.764-2.012 1.708-2.012.928 0 1.422.583 1.422 1.49 0 .998-.659 1.965-1.692 3.086l-3.924 4.254zM98.384 25.743h2.427v-10.98h-2.127l-2.471 1.797v2.119l2.171-1.46zM6.32.208h6.25v12.733L.014 25.676V6.604C.012 3.072 2.835.209 6.318.208zM12.57 12.941h12.558V.208z"/><path d="M18.845 25.647c3.468 0 6.28-2.851 6.28-6.367s-2.812-6.368-6.28-6.368c-3.467 0-6.279 2.85-6.279 6.367s2.812 6.368 6.28 6.368"/></g><defs><clipPath id="a"><path fill="#fff" d="M0 .027h101v25.945H0z"/></clipPath></defs></svg>