<svg xmlns="http://www.w3.org/2000/svg" width="84" height="22" fill="none" viewBox="0 0 84 22"><path fill="#fff" fill-rule="evenodd" d="M.44 7.637a1.563 1.563 0 0 1 2.12 0l10 9.445c.586.553.586 1.45 0 2.003a1.563 1.563 0 0 1-2.12 0l-10-9.444a1.36 1.36 0 0 1 0-2.004M0 3.917C0 3.134.672 2.5 1.5 2.5h10c.828 0 1.5.634 1.5 1.417 0 .782-.672 1.416-1.5 1.416h-10C.672 5.333 0 4.7 0 3.917" clip-rule="evenodd"/><path fill="#fff" fill-rule="evenodd" d="M3 10.056v8.027c0 .783-.672 1.417-1.5 1.417S0 18.866 0 18.083V8.64c0-.376.158-.736.44-1.002a1.55 1.55 0 0 1 1.06-.415h10c.828 0 1.5.634 1.5 1.417 0 .782-.672 1.417-1.5 1.417z" clip-rule="evenodd"/><path fill="#fff" d="M28.344 17v-4.368h2.512L32.84 17h2.24l-2.224-4.8c1.376-.56 2.112-1.68 2.112-3.248 0-2.304-1.552-3.648-4.208-3.648h-4.464V17zm0-9.872h2.416c1.296 0 2.064.656 2.064 1.824 0 1.184-.768 1.872-2.064 1.872h-2.416zM39.7 17.208c2.064 0 3.504-1.04 3.84-2.768h-1.808c-.224.752-.928 1.168-2 1.168-1.296 0-2.032-.704-2.176-2.096l5.952-.016v-.592c0-2.464-1.504-4.048-3.872-4.048-2.32 0-3.936 1.712-3.936 4.192 0 2.448 1.648 4.16 4 4.16m-.048-6.752c1.168 0 1.92.72 1.92 1.808h-3.968c.192-1.184.896-1.808 2.048-1.808m4.634-1.36v1.632h1.136V17h1.937v-6.272h1.887V9.096h-1.888v-.96c0-.784.24-1.296 1.233-1.296h.688V5.176a5.6 5.6 0 0 0-1.009-.08c-1.712 0-2.848.896-2.848 3.04v.96zm5.508 3.936c0 2.464 1.776 4.16 4.224 4.16s4.224-1.696 4.224-4.16-1.776-4.16-4.224-4.16-4.224 1.696-4.224 4.16m1.952 0c0-1.44.928-2.416 2.272-2.416s2.272.976 2.272 2.416-.928 2.416-2.272 2.416-2.272-.976-2.272-2.416M61.757 17v-2.128l1.152-1.2L64.973 17h2.24l-2.944-4.768 3.008-3.136H64.83l-3.072 3.312V5.096h-1.936V17zM73.76 9.096v4.144c0 1.504-.592 2.224-1.824 2.224-1.088 0-1.68-.608-1.68-2.112V9.096h-1.952v4.944c0 1.936 1.072 3.168 2.896 3.168 1.056 0 2.08-.512 2.56-1.264L73.903 17h1.808V9.096zm3.204 5.504c0 1.552 1.248 2.608 3.216 2.608 1.951 0 3.311-.992 3.311-2.592 0-1.216-.671-1.824-2-2.128l-1.423-.336c-.672-.16-1.024-.448-1.024-.896 0-.592.447-.944 1.215-.944.752 0 1.2.432 1.217 1.104h1.856c-.017-1.536-1.216-2.56-2.993-2.56-1.823 0-3.135.928-3.135 2.48 0 1.264.688 1.936 2.111 2.256l1.425.336c.703.16.911.448.911.848 0 .576-.496.944-1.407.944-.896 0-1.408-.432-1.424-1.12z"/></svg>