<svg xmlns="http://www.w3.org/2000/svg" width="111" height="32" fill="none" viewBox="0 0 111 32"><g fill="#fff" clip-path="url(#a)"><path d="M9.774 12.166H6.362v12.151h3.412zM13.28 13.433c1.05-1.016 2.511-1.524 4.369-1.524q2.786 0 4.352 1.523 1.57 1.526 1.572 3.98v6.9h-3.406v-6.643q.002-1.371-.637-2.132-.637-.764-1.881-.765-1.243.002-1.881.765-.639.76-.637 2.132v6.643h-3.435v-6.9q-.001-2.453 1.583-3.98M32.704 24.317a9.4 9.4 0 0 1-1.922.207q-2.464 0-3.937-1.357T25.372 19.2V8.264h3.436v3.901h3.814v2.69h-3.814v4.009q-.002 1.524.636 2.143c.427.413 1.204.62 2.343.62l.923-.028v2.713zM36.741 19.355q.297 1.215 1.163 1.875.866.661 2.108.66 1.105-.002 1.788-.297c.45-.195.8-.513 1.052-.943h3.166c-.38 1.278-1.116 2.255-2.22 2.936-1.098.681-2.337 1.022-3.704 1.022q-1.946-.002-3.447-.815a5.8 5.8 0 0 1-2.325-2.261q-.823-1.449-.823-3.282c0-1.223.28-2.294.84-3.26a5.94 5.94 0 0 1 2.326-2.26q1.488-.815 3.353-.816c1.245 0 2.302.274 3.272.826a5.95 5.95 0 0 1 2.284 2.278q.824 1.448.824 3.232 0 .644-.053 1.11h-9.604zm-.03-2.277h6.468c-.105-.71-.456-1.295-1.04-1.759q-.875-.696-2.126-.698c-.836 0-1.56.224-2.139.67q-.866.672-1.162 1.787M49.36 13.433c1.051-1.016 2.512-1.524 4.37-1.524q2.786 0 4.352 1.523 1.57 1.526 1.572 3.98v6.9h-3.406v-6.643q.002-1.371-.637-2.132-.638-.764-1.881-.765-1.243.002-1.881.765-.639.76-.637 2.132v6.643h-3.435v-6.9q-.001-2.453 1.583-3.98M60.869 20.672h3.272q.106.67.66 1.022.553.351 1.308.351c.503 0 .87-.094 1.151-.284q.42-.286.42-.748 0-.519-.525-.804c-.35-.19-.917-.385-1.688-.592q-1.3-.36-2.168-.748a3.84 3.84 0 0 1-1.49-1.189c-.414-.535-.625-1.239-.625-2.12 0-.687.193-1.312.567-1.86q.568-.828 1.636-1.306 1.07-.479 2.5-.48 2.058-.001 3.354 1.01c.864.67 1.343 1.597 1.431 2.77h-3.219a1.42 1.42 0 0 0-.538-.877c-.286-.223-.66-.335-1.11-.335s-.782.1-1.057.307c-.269.207-.409.463-.409.776 0 .33.17.575.514.748q.516.26 1.706.62c.882.256 1.618.518 2.203.775a3.9 3.9 0 0 1 1.513 1.19c.426.535.636 1.238.636 2.12 0 .71-.216 1.329-.648 1.876-.432.541-1.017.966-1.759 1.267a6.3 6.3 0 0 1-2.406.452q-2.189-.001-3.652-1.1-1.463-1.096-1.595-2.83M74.937 19.355q.296 1.215 1.162 1.875.867.661 2.11.66c.741 0 1.331-.101 1.781-.297s.8-.513 1.058-.943h3.166c-.38 1.278-1.116 2.255-2.22 2.936-1.098.681-2.337 1.022-3.704 1.022q-1.945-.002-3.453-.815a5.8 5.8 0 0 1-2.325-2.261q-.823-1.449-.823-3.282c0-1.223.28-2.294.835-3.26a5.94 5.94 0 0 1 2.325-2.26q1.489-.815 3.353-.816c1.245 0 2.296.274 3.272.826a5.96 5.96 0 0 1 2.284 2.278q.825 1.448.824 3.232 0 .644-.053 1.11h-9.604zm-.024-2.277h6.468c-.106-.71-.456-1.295-1.04-1.759q-.883-.696-2.127-.698c-.83 0-1.56.224-2.138.67q-.866.672-1.163 1.787M100.794 19.355q.296 1.215 1.162 1.875.867.661 2.109.66 1.104-.002 1.788-.297c.45-.195.8-.513 1.052-.943h3.166c-.38 1.278-1.116 2.255-2.22 2.936-1.098.681-2.337 1.022-3.704 1.022q-1.945-.002-3.453-.815a5.8 5.8 0 0 1-2.325-2.261q-.823-1.449-.823-3.282c0-1.223.28-2.294.84-3.26a5.9 5.9 0 0 1 2.326-2.26q1.488-.815 3.353-.816c1.245 0 2.302.274 3.272.826a5.95 5.95 0 0 1 2.284 2.278q.824 1.448.824 3.232 0 .644-.053 1.11h-9.604zm-.029-2.277h6.467c-.105-.71-.456-1.295-1.04-1.759q-.876-.696-2.121-.698c-.829 0-1.56.224-2.138.67q-.866.672-1.163 1.787M94.151 12.166l-3.014 8.545h-.059l-2.973-8.545h-3.728l4.949 12.174-2.05 5.096h3.54l6.952-17.27zM9.768 3.357c-5.094 0-9.219 3.947-9.219 8.809h3.435c0-3.054 2.588-5.526 5.784-5.526z"/></g><defs><clipPath id="a"><path fill="#fff" d="M0 3h111v26.793H0z"/></clipPath></defs></svg>