<svg xmlns="http://www.w3.org/2000/svg" width="114" height="32" fill="none" viewBox="0 0 114 32"><path fill="#fff" d="M5.778 23.67H1L3.301 8.33h9.293l-.658 4.295H7.422l-.198 1.402h4.515l-.657 4.296H6.567zM18.226 8.33l-1.622 10.848h5.172l-.679 4.493h-9.972l2.302-15.342zM38.105 15.518a7.9 7.9 0 0 1-.713 3.331 8.7 8.7 0 0 1-1.907 2.696 9 9 0 0 1-2.772 1.797 8.5 8.5 0 0 1-3.288.657 7.9 7.9 0 0 1-2.991-.57 7.8 7.8 0 0 1-2.477-1.577 7.4 7.4 0 0 1-1.676-2.378 7.2 7.2 0 0 1-.614-2.97 7.9 7.9 0 0 1 .712-3.331 8.78 8.78 0 0 1 4.68-4.515A8.5 8.5 0 0 1 30.346 8a7.8 7.8 0 0 1 2.992.581c.917.371 1.756.91 2.476 1.59a7.4 7.4 0 0 1 1.677 2.377c.413.935.623 1.948.614 2.97m-8.482 3.835c.476.001.947-.1 1.38-.296a3.7 3.7 0 0 0 1.907-1.94c.19-.435.287-.905.285-1.38a3.2 3.2 0 0 0-.23-1.216 3 3 0 0 0-.647-.976 3.1 3.1 0 0 0-.975-.657 3 3 0 0 0-1.216-.241 3.3 3.3 0 0 0-1.392.296 3.6 3.6 0 0 0-1.129.8c-.322.336-.578.73-.756 1.161a3.5 3.5 0 0 0-.274 1.38c-.004.418.075.83.23 1.217.146.36.362.689.636.965a3.06 3.06 0 0 0 2.18.887M40.515 23.67 37.513 8.33h4.843l1.25 8.459 3.681-8.46h4.23l1.118 8.46 3.814-8.46h5.018l-7.605 15.342H49.59l-1.118-8.635-3.704 8.635zM69.204 23.364a6 6 0 0 1-1.523.504 7.48 7.48 0 0 1-4.263-.438 6.9 6.9 0 0 1-2.301-1.578 7.2 7.2 0 0 1-1.502-2.378 8 8 0 0 1-.537-2.948 8.47 8.47 0 0 1 5.074-7.835A8.15 8.15 0 0 1 67.516 8c.684 0 1.365.084 2.027.252a6.7 6.7 0 0 1 1.83.756l-.767 4.93a3.8 3.8 0 0 0-1.27-.92q-.702-.306-1.688-.306a4 4 0 0 0-1.49.274c-.435.17-.83.427-1.162.756a3.35 3.35 0 0 0-.745 1.14 3.8 3.8 0 0 0-.263 1.402 3.1 3.1 0 0 0 .24 1.249c.156.357.383.678.67.943.297.27.648.475 1.03.602.42.142.86.212 1.303.209.495.002.988-.076 1.458-.23.453-.15.884-.36 1.282-.625zM87.175 15.518a7.9 7.9 0 0 1-.712 3.331 8.7 8.7 0 0 1-1.907 2.696 9 9 0 0 1-2.772 1.797 8.5 8.5 0 0 1-3.288.657 7.9 7.9 0 0 1-2.991-.57 7.8 7.8 0 0 1-2.477-1.577 7.4 7.4 0 0 1-1.677-2.378 7.2 7.2 0 0 1-.613-2.97 7.9 7.9 0 0 1 .712-3.331 8.78 8.78 0 0 1 4.68-4.515A8.5 8.5 0 0 1 79.416 8a7.8 7.8 0 0 1 2.991.581c.918.371 1.757.91 2.477 1.59a7.4 7.4 0 0 1 1.676 2.377c.414.935.623 1.948.614 2.97m-8.481 3.835c.476.001.946-.1 1.38-.296a3.7 3.7 0 0 0 1.907-1.94 3.4 3.4 0 0 0 .285-1.38 3.2 3.2 0 0 0-.23-1.216 3 3 0 0 0-.647-.976 3.1 3.1 0 0 0-.975-.657 3 3 0 0 0-1.216-.241 3.3 3.3 0 0 0-1.392.296 3.6 3.6 0 0 0-1.129.8c-.322.336-.578.73-.756 1.161a3.5 3.5 0 0 0-.274 1.38c-.004.418.074.83.23 1.217.146.36.362.689.636.965a3.06 3.06 0 0 0 2.18.887M88.972 8.33h5.172a7.4 7.4 0 0 1 2.86.547 7.2 7.2 0 0 1 2.302 1.501 6.98 6.98 0 0 1 2.093 5.008 7.4 7.4 0 0 1-.746 3.31 8.5 8.5 0 0 1-1.983 2.619 9.3 9.3 0 0 1-2.827 1.731 8.8 8.8 0 0 1-3.255.625h-5.917zm7.54 7.232a2.9 2.9 0 0 0-.198-1.052 2.7 2.7 0 0 0-.559-.888 2.61 2.61 0 0 0-1.94-.822h-.767l-.964 6.4h.745c.472-.001.938-.098 1.37-.285.439-.185.84-.449 1.183-.778.346-.332.625-.726.822-1.162a3.35 3.35 0 0 0 .307-1.413M103.195 8.33h9.578l-.658 4.295h-4.799l-.176 1.293h4.8l-.635 4.12h-4.8l-.197 1.337h4.843l-.635 4.296h-9.622z"/></svg>