<svg xmlns="http://www.w3.org/2000/svg" width="151" height="32" fill="none" viewBox="0 0 151 32"><path fill="#fff" d="M37.044 24.708V10.423h2.694v11.832h5.631l-.192 2.453zM62.23 24.708h-2.886l-1.37-3.751h-5.412l-1.37 3.751h-2.79l5.363-14.285h3.126zm-4.978-5.916-1.443-3.872a14 14 0 0 1-.289-.866 59 59 0 0 0-.192-.793h-.12q-.096.384-.217.793a7 7 0 0 1-.264.866l-1.491 3.872zM75.43 10.423l-5.218 14.285h-3.15l-5.22-14.285h2.91l3.416 9.596q.144.456.264.913.12.458.217.842h.096q.096-.384.216-.842.12-.456.265-.913l3.44-9.596zM87.508 10.423l-.217 2.405h-6.373v3.51h5.291v2.358h-5.291v3.607h6.71v2.405h-9.404V10.423zM103.918 10.423v14.285h-2.357l-6.037-8.441a10 10 0 0 1-.577-.842 26 26 0 0 1-.48-.818h-.097v10.101h-2.597V10.423h2.645l5.748 8.032q.312.434.577.866.29.409.481.794h.096v-9.692zM121.114 17.565q0 2.117-.962 3.728t-2.741 2.525q-1.78.89-4.233.89h-4.834V10.423h4.834q2.453 0 4.233.913 1.78.89 2.741 2.502.962 1.587.962 3.727m-2.813 0q0-1.515-.626-2.597a4.15 4.15 0 0 0-1.779-1.66q-1.155-.576-2.718-.577h-2.14V22.4h2.14q1.587 0 2.718-.578a4.15 4.15 0 0 0 1.779-1.66q.626-1.105.626-2.597M134.295 10.423l-.217 2.405h-6.373v3.51h5.291v2.358h-5.291v3.607h6.71v2.405h-9.404V10.423zM148.831 15.112q0 1.491-.842 2.526a4.2 4.2 0 0 1-2.069 1.394l3.848 5.676h-3.15l-3.367-5.026h-2.261v5.026h-2.693V10.423h4.762q1.803 0 3.102.553 1.299.529 1.972 1.587.698 1.035.698 2.55m-2.742 0q0-.866-.409-1.395a2.1 2.1 0 0 0-1.082-.793q-.697-.265-1.636-.265h-1.972v4.906h1.972q.939 0 1.636-.264t1.082-.794q.41-.553.409-1.395M12.342 25.724c-2.074-1.02-3.434-4.033-3.546-7.003-.113-2.969.585-4.953 2.762-6.424.653-.441 1.042-1.345 2.295-.99s2.774 1.919 3.422 4.497c.648 2.579.122 5.107-.585 6.754s-2.274 4.186-4.348 3.166"/><path fill="#fff" d="M8.245 21.793c-.619-1.968-.643-4.339-.337-5.325.044-.114 0-.225-.13-.248-.26-.07-.682-.162-1.377-.235-1.046-.111-3.419-.427-4.544.897-1.125 1.323-.734 2.524 1.04 5.824s3.053 4.25 4.476 4.293c.953.03 1.987-.662 2.566-1.122.275-.219.316-.608.122-.901-.547-.83-1.59-2.46-1.816-3.183M1.03 12.79a8.4 8.4 0 0 0 .732 2.702.13.13 0 0 0 .177.056c.314-.162 1.246-.577 2.62-.63 1.712-.066 2.74.492 3.418.437.21-.017.297-.668.2-1.003-.098-.336-1.245-1.872-2.302-2.823-1.214-1.093-2.476-2.344-3.553-2.209S.887 11.198 1.03 12.79M13.44 10.206c-.884.043-1.448.276-1.818.645-.076.076-.234.008-.218-.099.233-1.53.598-3.433 1.762-3.953 1.618-.723 2.305-.434 3.935-1.052 1.576-.598 2.237.57 2.055 2.563-.138 1.518-1.093 3.649-1.73 4.893-.037.074-.144.071-.182-.003-.89-1.74-2.678-3.049-3.804-2.994M17.7 26.734c-.405.038-1.212-.205-1.56-.632-.177-.218-.14-.528-.02-.782.388-.827 1.29-1.75 1.617-2.568.658-1.65.88-3.102.78-4.03-.142-1.313.711-2.028 2.543-2.808 2.49-1.061 4.177 1.34 3.81 2.69-.415 1.52-.456 3.23-2.095 5.185-1.277 1.525-3.881 2.836-5.074 2.945"/><path fill="#fff" d="M23.2 12.005c2.043.038 3.266 1.057 1.405 3.384a.155.155 0 0 1-.21.028c-.605-.441-1.61-.998-2.987-.65-.984.247-2.16.924-2.891 1.732-.038.041-.108.02-.116-.035-.042-.312-.16-1.063-.375-1.63a.53.53 0 0 1 .012-.432c1.288-2.488 3.909-2.42 5.162-2.397M25.6 6.959c.236 1.839-1.088 3.029-2.144 3.376-1.056.346-2.62.146-2.696-.653s1.495-2.463 2.13-3.932c.636-1.468 2.475-.63 2.71 1.209"/></svg>