<svg xmlns="http://www.w3.org/2000/svg" width="112" height="32" fill="none" viewBox="0 0 112 32"><g clip-path="url(#a)"><path fill="#fff" d="M37.458 2.527h3.215q2.132 0 3.104.708c.648.47.972 1.22.972 2.237q-.001.96-.383 1.547c-.254.392-.67.723-1.24.995q.952.425 1.52 1.17c.376.502.564 1.123.564 1.872q0 .912-.288 1.53a2.43 2.43 0 0 1-.828.993q-.54.375-1.296.539a8 8 0 0 1-1.68.162h-3.66V2.527m1.05 5.208h2.5q.508-.001.994-.098.487-.097.858-.343.376-.243.604-.666.232-.424.232-1.073 0-.652-.199-1.066a1.53 1.53 0 0 0-.589-.66 2.6 2.6 0 0 0-.972-.334q-.58-.09-1.363-.09h-2.07v4.33zm0 5.664h2.72q1.529 0 2.229-.577.7-.576.7-1.83-.001-.503-.185-.945a1.9 1.9 0 0 0-.581-.757q-.397-.315-1.02-.497-.62-.178-1.48-.177h-2.387v4.786zM53.407 5.976c-.243-.87-.597-1.54-1.057-2.018q-.691-.717-1.742-.716-.86-.001-1.473.4a3.2 3.2 0 0 0-1.02 1.099c-.272.467-.467 1.017-.596 1.646a10 10 0 0 0-.192 2.018q0 1.075.192 2.019c.129.628.327 1.178.604 1.645q.416.7 1.056 1.1.646.4 1.536.399.685 0 1.171-.237.486-.238.821-.625c.225-.26.405-.565.549-.912q.215-.52.357-1.092l.987.18a7 7 0 0 1-.453 1.44 3.8 3.8 0 0 1-.755 1.13c-.31.315-.681.556-1.123.733q-.663.26-1.569.26-1.049 0-1.87-.429a3.9 3.9 0 0 1-1.385-1.228q-.564-.796-.869-1.905-.303-1.107-.302-2.474 0-1.367.302-2.474c.203-.738.49-1.371.87-1.906q.564-.796 1.384-1.227.819-.43 1.87-.43.762 0 1.37.26.606.261 1.057.716.452.458.755 1.08.301.628.493 1.345l-.972.21zM63.166 5.946a5 5 0 0 0-.365-1.05 3.1 3.1 0 0 0-.604-.863 2.7 2.7 0 0 0-.858-.576 2.9 2.9 0 0 0-1.13-.21q-.764 0-1.378.357c-.408.237-.758.584-1.05 1.032q-.434.678-.677 1.626a8.9 8.9 0 0 0-.24 2.14q0 .943.16 1.87t.574 1.662q.412.733 1.123 1.178.707.448 1.823.448.608.001 1.104-.218.503-.22.851-.61t.541-.904q.194-.512.192-1.1V9.656h-2.898v-.877h3.947v5.502h-.906v-1.156h-.033c-.338.455-.747.79-1.219 1.001q-.706.317-1.9.317a3.9 3.9 0 0 1-1.767-.4 4 4 0 0 1-1.4-1.163c-.394-.509-.7-1.141-.916-1.887q-.328-1.125-.328-2.587.001-1.463.35-2.587.35-1.124.953-1.887a4.1 4.1 0 0 1 1.418-1.163q.812-.401 1.734-.4.795-.001 1.448.253.652.255 1.145.7.49.447.821 1.074.327.628.471 1.374l-.986.18zM37.487 30.122V17.27h3.465c1.485 0 2.593.335 3.315 1.005.725.67 1.09 1.62 1.09 2.84q-.001 1.832-1.09 2.839-1.088 1.005-3.315 1.005h-1.06v5.163h-2.405m2.401-7.192h1.29q1.773-.001 1.774-1.815-.001-1.815-1.775-1.815h-1.289zM46.857 30.122V17.27h2.401v10.68h3.863v2.172zM54.426 30.122l3.115-12.852h3.083l3.027 12.852h-2.298l-.608-2.704H57.42l-.678 2.704zm3.428-4.876h2.387l-1.168-5.197h-.033l-1.182 5.197zM71.372 17.27v2.173h-2.803v10.68h-2.4v-10.68h-2.803V17.27zM75.939 17.27h-2.4v12.852h2.4zM78.475 30.122V17.27h2.629l3.34 7.618h.037V17.27h2.194v12.852h-2.297l-3.675-8.296h-.034v8.296zM91.602 17.27H89.2v12.852h2.4zM93.788 21.4q0-1.191.294-2.01c.195-.546.472-.987.818-1.326a3.1 3.1 0 0 1 1.252-.738 5.3 5.3 0 0 1 1.602-.233q.872.001 1.601.233.731.232 1.252.738c.347.34.623.78.818 1.326q.293.819.294 2.01v4.595q0 1.192-.294 2.01-.298.82-.818 1.326a3.1 3.1 0 0 1-1.252.739 5.3 5.3 0 0 1-1.602.23 5.3 5.3 0 0 1-1.601-.23 3.1 3.1 0 0 1-1.252-.739q-.525-.507-.818-1.325c-.199-.546-.294-1.216-.294-2.011zm2.4 4.915q0 1.069.417 1.442.42.373 1.148.373.73 0 1.15-.373c.28-.248.415-.73.415-1.442v-5.234q-.001-1.069-.416-1.443-.42-.372-1.148-.372-.73 0-1.15.372c-.28.249-.415.731-.415 1.443zM103.799 30.122V17.27h2.63l3.343 7.618h.033V17.27H112v12.852h-2.298l-3.675-8.296h-.033v8.296z"/><path fill="#74716e" d="m18.038 31.862-2.404-19.217 7.821 3.412z"/><path fill="#464646" d="m18.036 31.862-2.404-19.217L0 6.33z"/><path fill="#dbdbda" d="m33.013 6.334-9.556 9.723-5.417 15.805z"/><path fill="#f6f6f5" d="M15.634 12.645 33.01 6.334l-9.556 9.723z"/><path fill="#464646" d="M15.632 12.645 0 6.334 17.388 0 33.01 6.334z"/><path fill="#74716e" d="M0 6.334h33.01l-17.378 6.311z"/></g><defs><clipPath id="a"><path fill="#fff" d="M0 0h112v32H0z"/></clipPath></defs></svg>