<svg xmlns="http://www.w3.org/2000/svg" width="212" height="32" fill="none" viewBox="0 0 212 32"><path fill="#fff" d="M0 0h8.482l6.384 15.817c2.009 4.983 2.723 8.229 2.723 8.229s.76-3.246 2.724-8.092L26.74 0H35v32h-6.071V16.777c0-5.394.267-8.777.267-8.777s-1.026 3.246-2.946 8.046L19.821 32H15.18l-6.34-15.771C6.83 11.246 5.85 8 5.85 8s.222 3.383.222 8.594V32H0zM103 0h7.467l8.933 16.411c2.578 4.709 3.867 7.818 3.867 7.818s-.311-3.383-.311-8.595V0H129v32h-7.422l-9.022-16.411c-2.534-4.709-3.823-7.818-3.823-7.818s.311 3.383.311 8.595V32H103zM181 0h6.479l8.639 24.137L204.656 0H211l-11.609 32h-6.839zM85 32h-6.693L69.384 7.863 60.554 32H54L65.991 0h7.064zM159.247 0 147 32h6.8L166 0z"/></svg>