<svg xmlns="http://www.w3.org/2000/svg" width="134" height="32" fill="none" viewBox="0 0 134 32"><g fill="#fff" clip-path="url(#a)"><path d="m32.172 20.96 1.1-1.87c.918.644 2.233 1.012 3.486 1.012 1.04 0 1.682-.337 1.682-.92 0-.613-.55-.889-1.896-.98-2.538-.215-4.036-1.319-4.036-3.097 0-1.839 1.712-3.096 4.342-3.096 1.529 0 2.905.43 3.944 1.104l-1.07 1.84c-.825-.522-1.743-.767-2.752-.767-1.223 0-1.865.306-1.865.92 0 .551.49.827 1.712.95 2.844.275 4.22 1.256 4.22 3.157 0 1.9-1.682 3.157-4.403 3.157-1.682-.03-3.21-.521-4.464-1.41M42.535 9.493c0-.92.673-1.563 1.62-1.563s1.621.643 1.621 1.563c0 .889-.703 1.502-1.62 1.502s-1.62-.613-1.62-1.502m.275 2.759h2.63v9.839h-2.63zM57.675 16.604v5.487h-2.63v-5.334c0-1.501-.825-2.39-2.14-2.39-1.437 0-2.385 1.042-2.385 2.574v5.15h-2.63v-9.84h2.294l.183 1.135c.765-.858 1.927-1.349 3.21-1.349 2.477 0 4.098 1.778 4.098 4.567M67.7 20.65c1.438.612 2.233 1.685 2.233 3.126 0 2.483-2.08 4.107-5.32 4.107-3.333 0-5.412-1.839-5.229-4.536h2.568c-.03 1.38.979 2.237 2.66 2.237 1.56 0 2.63-.766 2.63-1.87 0-1.133-.948-1.808-2.599-1.808-3.272 0-5.381-1.93-5.381-4.935 0-2.881 2.201-4.966 5.32-4.966.917 0 1.773.184 2.477.583l1.222-1.502 1.896 1.44-1.345 1.564c.764.889 1.07 1.747 1.07 2.881.061 1.625-.734 2.912-2.201 3.678m-.336-3.679c0-1.594-1.07-2.636-2.69-2.636s-2.691 1.042-2.691 2.636c0 1.563 1.1 2.636 2.69 2.636 1.621 0 2.691-1.073 2.691-2.636M81.55 12.252v9.84h-2.293l-.183-1.135c-.764.858-1.896 1.349-3.21 1.349-2.447 0-4.067-1.747-4.067-4.537v-5.517h2.63v5.333c0 1.502.825 2.391 2.078 2.391 1.407 0 2.355-1.042 2.355-2.575v-5.149zM83.965 8.146h2.63v13.947h-2.63zM99.102 12.255v9.84h-2.294l-.183-1.196c-.826.92-2.018 1.41-3.394 1.41-2.813 0-4.77-2.115-4.77-5.15 0-3.034 1.957-5.15 4.77-5.15 1.406 0 2.599.491 3.394 1.41l.183-1.164zm-2.6 4.904c0-1.655-1.1-2.82-2.69-2.82-1.56 0-2.69 1.165-2.69 2.82s1.1 2.82 2.69 2.82c1.56.03 2.69-1.165 2.69-2.82M109.313 12.957l-1.162 2.053c-.55-.367-1.039-.52-1.59-.52-1.437 0-2.385 1.01-2.385 2.82v4.812h-2.629v-9.87h2.293l.214 1.226c.764-1.012 1.682-1.44 2.752-1.44.917 0 1.865.306 2.507.919M110.234 9.493c0-.92.673-1.563 1.621-1.563s1.62.643 1.62 1.563c0 .889-.703 1.502-1.62 1.502-.948.03-1.621-.613-1.621-1.502m.276 2.759h2.629v9.839h-2.629zM122.092 21.726c-.826.367-1.529.52-2.416.52-2.018 0-3.332-1.072-3.332-3.647v-4.2h-1.774v-2.145h1.774V9.741l2.629-.276v2.79h2.63v2.175h-2.63v4.2c0 .889.459 1.349 1.254 1.349.367 0 .825-.123 1.162-.276zM133.529 12.252l-6.145 14.253h-2.844l1.957-4.536-3.852-9.717h2.843l1.437 3.832 1.04 3.003 1.131-3.003 1.559-3.832zM12.36 31.319c-1.713-.613-3.762-1.134-6.697-3.924C3.278 25.312.618 20.286.65 15.013c.06-10.299 0-10.606 0-10.606 1.895-.92 4.8-2.115 7.827-2.452C3.4 4.928 1.749 13.173 9.607 17.464c9.662 5.272 5.78 12.66 2.752 13.855M24.16 14.981V4.376c-3.057-1.288-5.167-2.207-8.897-2.636-5.106-.613-8.439 6.62-1.01 10.82 4.985 2.82 8.348 7.265 7.064 12.077 2.874-4.016 2.843-9.656 2.843-9.656"/></g><defs><clipPath id="a"><path fill="#fff" d="M0 0h134v32H0z"/></clipPath></defs></svg>