<svg xmlns="http://www.w3.org/2000/svg" width="85" height="32" fill="none" viewBox="0 0 85 32"><path fill="#fff" d="M.334 2.002c3.522-.064 5.52 1.404 5.92 4.409 1.537-2.939 3.846-4.409 6.12-4.409 8.66 0 6.252 12.45-2.57 14.688 1.666 3.975 7.251 10.385 13.845 10.252l-.368 2.971c-5.752.1-13.21-5.175-16.708-12.887l-1.103-.1-1.44 6.71H.636l2.642-11.85a17 17 0 0 0 .502-3.505c0-2.27-1.003-3.538-3.779-3.472zm6.89 12.387c6.52 0 10.024-9.513 5.217-9.513-3.043 0-5.452 5.08-6.488 9.38q.63.113 1.27.133m15.517-3.773c2.607 0 4.25 1.337 4.25 3.806 0 3.808-4.28 5.443-7.758 4.342.601 2.502 3.511 2.669 7.156 1.901l-.3 2.705c-5.525 1.234-9.936-.4-9.936-5.776 0-3.706 2.869-6.978 6.589-6.978m1.237 3.773c0-2.002-4.18-1.502-4.681 2.204 2.139.634 4.68-.067 4.68-2.204m6.426-3.439h3.039l-.334 1.604c.969-1.47 2.038-1.938 3.274-1.938 1.172 0 2.208.704 2.643 2.071 1.105-1.503 2.408-2.07 3.745-2.07 2.008 0 3.545 1.77 2.81 5.209l-1.625 7.644h-3.223l1.604-7.277c.467-2.071.1-2.905-.772-2.905-.969 0-1.974 1.167-2.976 4.706l-1.17 5.476h-3.208l1.604-7.277c.468-2.071.1-2.905-.77-2.905-.937 0-2.209 2.004-2.944 4.54l-1.237 5.645H27.69zm19.161 0h3.21l-2.747 12.52h-3.175zm2.103-6.307a1.98 1.98 0 0 1 1.778 1.27 1.968 1.968 0 0 1-1.506 2.64 1.98 1.98 0 0 1-2.002-.878 1.97 1.97 0 0 1-.147-1.858 1.96 1.96 0 0 1 1.877-1.174m4.346 6.307h3.044l-.535 2.505c1.136-2.202 2.375-2.839 3.88-2.839 2.14 0 3.61 1.771 2.943 5.21l-1.473 7.644h-3.178l1.44-7.277c.4-2.071.072-2.9-.802-2.9-1.139 0-2.57 1.67-3.599 4.54l-1.239 5.645h-3.19zm17.246-.334a3.03 3.03 0 0 1 2.776 1.57L78.01 3.14h3.008l-2.997 14.26c-.514 2.437.514 3.705 3.979 3.705l-.535 2.71c-2.876 0-4.884-.5-5.752-2.566-.736 1.47-2.643 2.566-4.414 2.566-2.71 0-4.383-2.371-4.149-5.645.234-3.714 2.342-7.553 6.11-7.553M71.857 21.1c1.8 0 3.244-2.502 3.244-5.474 0-1.437-.638-2.404-1.607-2.404-1.838 0-3.378 2.471-3.378 5.343.01 1.634.713 2.535 1.751 2.535z"/></svg>