<svg xmlns="http://www.w3.org/2000/svg" width="95" height="32" fill="none" viewBox="0 0 95 32"><path fill="#fff" d="M0 7.508v17.013h17.016V7.508zm11.78 11.777H5.236v-6.54h6.542zM28.8 12.744h-6.546v6.545H28.8zM34.031 7.509h9.483c3.48 0 5.072 2.318 5.072 4.44 0 1.528-.59 2.511-2.163 3.432 1.984.732 3.065 2.06 3.065 4.1 0 2.445-1.787 5.04-5.96 5.04h-9.501zm5.18 13.18h3.431a1.644 1.644 0 0 0 1.788-1.645 1.474 1.474 0 0 0-1.609-1.42h-3.61zm0-6.475h2.757c1.26 0 1.76-.585 1.76-1.447a1.268 1.268 0 0 0-1.398-1.309h-3.084zM54.886 7.509h5.483l6.256 16.977H60.98l-.827-2.543h-5.268l-.697 2.53H48.63zm2.516 5.044-1.444 5.673h3.093zM75.353 12.562h5.228C80.581 9.676 78.41 7 73.257 7c-5.653 0-7.4 3.127-7.4 5.401 0 3.677 4.505 4.656 4.643 4.7.67.215 3.468.96 4.165 1.211.607.214 1.184.701 1.184 1.34 0 .992-1.184 1.47-2.167 1.47-.635 0-2.762-.21-2.762-2.462h-5.398c0 2.99 2.06 6.34 7.833 6.34 6.377 0 7.709-3.802 7.709-5.808a4.69 4.69 0 0 0-3.092-4.351c-1.296-.523-3.45-.983-4.527-1.296-.545-.16-2.36-.527-2.36-1.635 0-1.416 2.338-1.233 1.998-1.233 1.054-.01 2.27.585 2.27 1.885M81.952 7.505H95v4.49h-7.833v2.993h6.984v4.29H87.14v5.24h-5.215z"/></svg>